<svg width="478" height="155" viewBox="0 0 478 155" fill="none" xmlns="http://www.w3.org/2000/svg">
<mask id="path-1-outside-1_555_549" maskUnits="userSpaceOnUse" x="-0.611145" y="0.037262" width="479" height="155" fill="black">
<rect fill="white" x="-0.611145" y="0.037262" width="479" height="155"/>
<path d="M53.7613 98.7658C53.7511 98.1492 53.7419 97.5943 53.7337 97.101C53.7235 96.4845 53.6516 95.8703 53.5181 95.2586L50.7453 95.3675C47.1714 95.5079 43.4147 95.7789 39.4751 96.1805C35.6568 96.4539 31.4092 96.8676 26.7322 97.4215L31.2541 68.9243C34.9471 68.5324 37.9018 68.2313 40.118 68.0208C42.4575 67.8055 45.0435 67.5805 47.8759 67.3458C50.8316 67.1063 53.2276 66.5802 55.0639 65.7677C56.9002 64.9552 58.3021 63.9746 59.2696 62.826C60.235 61.5541 60.8308 60.2968 61.0568 59.0539C61.404 57.6829 61.5674 56.3808 61.547 55.1477C61.5163 53.2979 61.3008 51.4554 60.9004 49.6202C60.2822 49.5211 59.7266 49.4812 59.2336 49.5006C58.7407 49.52 58.1861 49.5418 57.5699 49.566C52.3939 49.7693 47.1008 50.3475 41.6906 51.3004C36.4015 52.1252 31.7934 53.1084 27.8661 54.2498L27.36 23.729C31.655 22.4497 37.1217 21.186 43.7602 19.938C50.5219 18.6852 57.7232 17.9087 65.364 17.6085C70.9097 17.3906 75.605 17.9465 79.4499 19.2762C83.2928 20.4826 86.4034 22.1496 88.7818 24.2773C91.1601 26.405 92.8657 28.8676 93.8987 31.6651C95.0528 34.3345 95.6534 37.0874 95.7004 39.9236C95.7208 41.1568 95.6314 43.1964 95.4319 46.0423C95.3537 48.7601 94.9683 51.5517 94.2759 54.417C93.1294 59.6447 91.1676 64.0407 88.3904 67.6049C85.7343 71.041 83.0075 73.9245 80.2098 76.2556L80.2159 76.6256C82.9578 78.3688 84.7826 80.5799 85.6903 83.259C86.7212 85.9332 87.2632 88.8734 87.3164 92.0797C87.3614 94.7926 87.2205 97.4512 86.8937 100.055C86.5669 102.66 86.0604 105.579 85.3741 108.815C83.8886 115.907 81.7038 121.73 78.8197 126.286C75.9335 130.718 72.4159 134.25 68.2666 136.881C64.1174 139.512 59.4004 141.363 54.1154 142.434C48.8326 143.629 43.1102 144.347 36.9482 144.59C34.8532 144.672 32.5723 144.7 30.1055 144.673C27.7619 144.642 25.4173 144.549 23.0717 144.394C20.8493 144.235 18.6875 144.011 16.5863 143.724C14.6084 143.431 12.8759 143.067 11.3889 142.632L16.6164 112.071C18.7217 112.606 21.5654 113.049 25.1474 113.402C28.8507 113.627 32.859 113.654 37.1724 113.485C39.8836 113.378 42.2847 113.161 44.3757 112.832C46.4666 112.503 48.1828 111.88 49.5241 110.963C50.9866 109.919 52.0722 108.457 52.781 106.578C53.4897 104.7 53.8165 102.095 53.7613 98.7658Z"/>
<path d="M153.649 13.7696C164.987 13.3241 173.28 15.1577 178.527 19.2704C183.773 23.2598 186.468 29.6322 186.613 38.3877C186.691 43.0737 186.525 47.9544 186.116 53.0298C185.83 58.1002 185.358 63.1164 184.701 68.0781C184.166 73.0349 183.444 77.8141 182.534 82.4155C181.747 87.0121 180.953 91.1771 180.151 94.9105C177.848 104.749 175.327 112.622 172.589 118.53C169.974 124.432 166.783 129.061 163.015 132.418C159.246 135.651 154.72 137.865 149.437 139.059C144.154 140.254 137.754 140.999 130.237 141.294C118.899 141.74 110.607 139.968 105.361 135.979C100.114 131.866 97.4175 125.432 97.2723 116.676C97.1946 111.99 97.2987 107.112 97.5845 102.042C97.9936 96.9662 98.4654 91.9501 98.9998 86.9932C99.6574 82.0315 100.38 77.2524 101.167 72.6558C101.954 68.0592 102.81 63.8918 103.734 60.1535C106.037 50.3147 108.497 42.4441 111.112 36.5417C113.85 30.6345 117.104 26.0643 120.873 22.8313C124.64 19.475 129.165 17.1995 134.448 16.0047C139.731 14.81 146.131 14.0649 153.649 13.7696ZM148.215 87.6509C148.665 85.0419 149.232 82.0581 149.916 78.6995C150.598 75.2176 151.215 71.4915 151.766 67.5211C152.44 63.546 152.989 59.514 153.415 55.4252C153.961 51.2082 154.324 47.0601 154.503 42.981C153.513 42.7731 152.217 42.7006 150.615 42.7636C148.52 42.8459 146.738 43.2244 145.27 43.8991C143.922 44.4456 142.647 45.6063 141.443 47.3812C140.362 49.1512 139.356 51.6587 138.423 54.9036C137.611 58.0204 136.694 62.1903 135.671 67.4131C135.097 70.027 134.47 73.0749 133.788 76.5568C133.227 79.9105 132.609 83.575 131.935 87.5502C131.382 91.3972 130.833 95.4292 130.286 99.6461C129.737 103.74 129.373 107.826 129.194 111.905C130.184 112.113 131.542 112.183 133.267 112.115C135.239 112.038 136.96 111.724 138.431 111.172C139.9 110.498 141.174 109.275 142.255 107.505C143.459 105.73 144.466 103.284 145.278 100.168C146.213 97.046 147.192 92.8738 148.215 87.6509Z"/>
<path d="M246.98 10.1026C258.318 9.6571 266.611 11.4907 271.858 15.6034C277.104 19.5928 279.799 25.9652 279.944 34.7207C280.022 39.4067 279.857 44.2874 279.447 49.3628C279.162 54.4333 278.69 59.4494 278.032 64.4111C277.498 69.3679 276.775 74.1471 275.865 78.7485C275.078 83.3451 274.284 87.5101 273.483 91.2435C271.179 101.082 268.659 108.955 265.92 114.863C263.305 120.765 260.114 125.394 256.347 128.751C252.577 131.984 248.051 134.198 242.769 135.392C237.486 136.587 231.085 137.332 223.568 137.627C212.23 138.073 203.938 136.301 198.693 132.312C193.445 128.199 190.749 121.765 190.604 113.009C190.526 108.323 190.63 103.445 190.916 98.3746C191.325 93.2992 191.797 88.2831 192.331 83.3262C192.989 78.3645 193.711 73.5854 194.498 68.9888C195.285 64.3922 196.141 60.2248 197.065 56.4865C199.369 46.6477 201.828 38.7771 204.443 32.8747C207.181 26.9675 210.435 22.3973 214.204 19.1643C217.972 15.808 222.497 13.5325 227.78 12.3377C233.062 11.143 239.463 10.3979 246.98 10.1026ZM241.546 83.9839C241.996 81.3749 242.563 78.3911 243.247 75.0325C243.93 71.5506 244.546 67.8245 245.097 63.8541C245.771 59.879 246.321 55.847 246.746 51.7582C247.293 47.5412 247.656 43.3932 247.835 39.314C246.845 39.1061 245.548 39.0337 243.946 39.0966C241.851 39.1789 240.069 39.5574 238.601 40.2321C237.253 40.7786 235.978 41.9393 234.774 43.7142C233.694 45.4842 232.687 47.9917 231.754 51.2366C230.943 54.3534 230.025 58.5233 229.002 63.7461C228.429 66.36 227.801 69.4079 227.119 72.8898C226.558 76.2435 225.94 79.908 225.266 83.8832C224.714 87.7302 224.164 91.7622 223.617 95.9791C223.068 100.073 222.705 104.159 222.526 108.238C223.516 108.446 224.873 108.516 226.599 108.448C228.57 108.371 230.292 108.057 231.762 107.505C233.231 106.831 234.506 105.608 235.586 103.838C236.79 102.063 237.797 99.6175 238.609 96.5007C239.544 93.379 240.523 89.2068 241.546 83.9839Z"/>
<path d="M322.859 32.4543L350.138 31.3825L337.734 106.458L357.819 105.669L351.779 130.369L306.364 132.153L322.859 32.4543Z"/>
<path d="M428.569 28.3009L422.675 52.6949L400.492 53.5665L398.318 67.1589L420.35 66.2932L416.529 89.105L394.496 89.9707L392.185 104.319L417.515 103.324L411.475 128.023L360.814 130.014L377.309 30.315L428.569 28.3009Z"/>
<path d="M465.771 26.8393L449.277 126.538L421.998 127.61L438.492 27.9111L465.771 26.8393Z"/>
</mask>
<path d="M53.7613 98.7658C53.7511 98.1492 53.7419 97.5943 53.7337 97.101C53.7235 96.4845 53.6516 95.8703 53.5181 95.2586L50.7453 95.3675C47.1714 95.5079 43.4147 95.7789 39.4751 96.1805C35.6568 96.4539 31.4092 96.8676 26.7322 97.4215L31.2541 68.9243C34.9471 68.5324 37.9018 68.2313 40.118 68.0208C42.4575 67.8055 45.0435 67.5805 47.8759 67.3458C50.8316 67.1063 53.2276 66.5802 55.0639 65.7677C56.9002 64.9552 58.3021 63.9746 59.2696 62.826C60.235 61.5541 60.8308 60.2968 61.0568 59.0539C61.404 57.6829 61.5674 56.3808 61.547 55.1477C61.5163 53.2979 61.3008 51.4554 60.9004 49.6202C60.2822 49.5211 59.7266 49.4812 59.2336 49.5006C58.7407 49.52 58.1861 49.5418 57.5699 49.566C52.3939 49.7693 47.1008 50.3475 41.6906 51.3004C36.4015 52.1252 31.7934 53.1084 27.8661 54.2498L27.36 23.729C31.655 22.4497 37.1217 21.186 43.7602 19.938C50.5219 18.6852 57.7232 17.9087 65.364 17.6085C70.9097 17.3906 75.605 17.9465 79.4499 19.2762C83.2928 20.4826 86.4034 22.1496 88.7818 24.2773C91.1601 26.405 92.8657 28.8676 93.8987 31.6651C95.0528 34.3345 95.6534 37.0874 95.7004 39.9236C95.7208 41.1568 95.6314 43.1964 95.4319 46.0423C95.3537 48.7601 94.9683 51.5517 94.2759 54.417C93.1294 59.6447 91.1676 64.0407 88.3904 67.6049C85.7343 71.041 83.0075 73.9245 80.2098 76.2556L80.2159 76.6256C82.9578 78.3688 84.7826 80.5799 85.6903 83.259C86.7212 85.9332 87.2632 88.8734 87.3164 92.0797C87.3614 94.7926 87.2205 97.4512 86.8937 100.055C86.5669 102.66 86.0604 105.579 85.3741 108.815C83.8886 115.907 81.7038 121.73 78.8197 126.286C75.9335 130.718 72.4159 134.25 68.2666 136.881C64.1174 139.512 59.4004 141.363 54.1154 142.434C48.8326 143.629 43.1102 144.347 36.9482 144.59C34.8532 144.672 32.5723 144.7 30.1055 144.673C27.7619 144.642 25.4173 144.549 23.0717 144.394C20.8493 144.235 18.6875 144.011 16.5863 143.724C14.6084 143.431 12.8759 143.067 11.3889 142.632L16.6164 112.071C18.7217 112.606 21.5654 113.049 25.1474 113.402C28.8507 113.627 32.859 113.654 37.1724 113.485C39.8836 113.378 42.2847 113.161 44.3757 112.832C46.4666 112.503 48.1828 111.88 49.5241 110.963C50.9866 109.919 52.0722 108.457 52.781 106.578C53.4897 104.7 53.8165 102.095 53.7613 98.7658Z" fill="#FF0000"/>
<path d="M153.649 13.7696C164.987 13.3241 173.28 15.1577 178.527 19.2704C183.773 23.2598 186.468 29.6322 186.613 38.3877C186.691 43.0737 186.525 47.9544 186.116 53.0298C185.83 58.1002 185.358 63.1164 184.701 68.0781C184.166 73.0349 183.444 77.8141 182.534 82.4155C181.747 87.0121 180.953 91.1771 180.151 94.9105C177.848 104.749 175.327 112.622 172.589 118.53C169.974 124.432 166.783 129.061 163.015 132.418C159.246 135.651 154.72 137.865 149.437 139.059C144.154 140.254 137.754 140.999 130.237 141.294C118.899 141.74 110.607 139.968 105.361 135.979C100.114 131.866 97.4175 125.432 97.2723 116.676C97.1946 111.99 97.2987 107.112 97.5845 102.042C97.9936 96.9662 98.4654 91.9501 98.9998 86.9932C99.6574 82.0315 100.38 77.2524 101.167 72.6558C101.954 68.0592 102.81 63.8918 103.734 60.1535C106.037 50.3147 108.497 42.4441 111.112 36.5417C113.85 30.6345 117.104 26.0643 120.873 22.8313C124.64 19.475 129.165 17.1995 134.448 16.0047C139.731 14.81 146.131 14.0649 153.649 13.7696ZM148.215 87.6509C148.665 85.0419 149.232 82.0581 149.916 78.6995C150.598 75.2176 151.215 71.4915 151.766 67.5211C152.44 63.546 152.989 59.514 153.415 55.4252C153.961 51.2082 154.324 47.0601 154.503 42.981C153.513 42.7731 152.217 42.7006 150.615 42.7636C148.52 42.8459 146.738 43.2244 145.27 43.8991C143.922 44.4456 142.647 45.6063 141.443 47.3812C140.362 49.1512 139.356 51.6587 138.423 54.9036C137.611 58.0204 136.694 62.1903 135.671 67.4131C135.097 70.027 134.47 73.0749 133.788 76.5568C133.227 79.9105 132.609 83.575 131.935 87.5502C131.382 91.3972 130.833 95.4292 130.286 99.6461C129.737 103.74 129.373 107.826 129.194 111.905C130.184 112.113 131.542 112.183 133.267 112.115C135.239 112.038 136.96 111.724 138.431 111.172C139.9 110.498 141.174 109.275 142.255 107.505C143.459 105.73 144.466 103.284 145.278 100.168C146.213 97.046 147.192 92.8738 148.215 87.6509Z" fill="#FF0000"/>
<path d="M246.98 10.1026C258.318 9.6571 266.611 11.4907 271.858 15.6034C277.104 19.5928 279.799 25.9652 279.944 34.7207C280.022 39.4067 279.857 44.2874 279.447 49.3628C279.162 54.4333 278.69 59.4494 278.032 64.4111C277.498 69.3679 276.775 74.1471 275.865 78.7485C275.078 83.3451 274.284 87.5101 273.483 91.2435C271.179 101.082 268.659 108.955 265.92 114.863C263.305 120.765 260.114 125.394 256.347 128.751C252.577 131.984 248.051 134.198 242.769 135.392C237.486 136.587 231.085 137.332 223.568 137.627C212.23 138.073 203.938 136.301 198.693 132.312C193.445 128.199 190.749 121.765 190.604 113.009C190.526 108.323 190.63 103.445 190.916 98.3746C191.325 93.2992 191.797 88.2831 192.331 83.3262C192.989 78.3645 193.711 73.5854 194.498 68.9888C195.285 64.3922 196.141 60.2248 197.065 56.4865C199.369 46.6477 201.828 38.7771 204.443 32.8747C207.181 26.9675 210.435 22.3973 214.204 19.1643C217.972 15.808 222.497 13.5325 227.78 12.3377C233.062 11.143 239.463 10.3979 246.98 10.1026ZM241.546 83.9839C241.996 81.3749 242.563 78.3911 243.247 75.0325C243.93 71.5506 244.546 67.8245 245.097 63.8541C245.771 59.879 246.321 55.847 246.746 51.7582C247.293 47.5412 247.656 43.3932 247.835 39.314C246.845 39.1061 245.548 39.0337 243.946 39.0966C241.851 39.1789 240.069 39.5574 238.601 40.2321C237.253 40.7786 235.978 41.9393 234.774 43.7142C233.694 45.4842 232.687 47.9917 231.754 51.2366C230.943 54.3534 230.025 58.5233 229.002 63.7461C228.429 66.36 227.801 69.4079 227.119 72.8898C226.558 76.2435 225.94 79.908 225.266 83.8832C224.714 87.7302 224.164 91.7622 223.617 95.9791C223.068 100.073 222.705 104.159 222.526 108.238C223.516 108.446 224.873 108.516 226.599 108.448C228.57 108.371 230.292 108.057 231.762 107.505C233.231 106.831 234.506 105.608 235.586 103.838C236.79 102.063 237.797 99.6175 238.609 96.5007C239.544 93.379 240.523 89.2068 241.546 83.9839Z" fill="#FF0000"/>
<path d="M322.859 32.4543L350.138 31.3825L337.734 106.458L357.819 105.669L351.779 130.369L306.364 132.153L322.859 32.4543Z" fill="#FF0000"/>
<path d="M428.569 28.3009L422.675 52.6949L400.492 53.5665L398.318 67.1589L420.35 66.2932L416.529 89.105L394.496 89.9707L392.185 104.319L417.515 103.324L411.475 128.023L360.814 130.014L377.309 30.315L428.569 28.3009Z" fill="#FF0000"/>
<path d="M465.771 26.8393L449.277 126.538L421.998 127.61L438.492 27.9111L465.771 26.8393Z" fill="#FF0000"/>
<path d="M53.7613 98.7658C53.7511 98.1492 53.7419 97.5943 53.7337 97.101C53.7235 96.4845 53.6516 95.8703 53.5181 95.2586L50.7453 95.3675C47.1714 95.5079 43.4147 95.7789 39.4751 96.1805C35.6568 96.4539 31.4092 96.8676 26.7322 97.4215L31.2541 68.9243C34.9471 68.5324 37.9018 68.2313 40.118 68.0208C42.4575 67.8055 45.0435 67.5805 47.8759 67.3458C50.8316 67.1063 53.2276 66.5802 55.0639 65.7677C56.9002 64.9552 58.3021 63.9746 59.2696 62.826C60.235 61.5541 60.8308 60.2968 61.0568 59.0539C61.404 57.6829 61.5674 56.3808 61.547 55.1477C61.5163 53.2979 61.3008 51.4554 60.9004 49.6202C60.2822 49.5211 59.7266 49.4812 59.2336 49.5006C58.7407 49.52 58.1861 49.5418 57.5699 49.566C52.3939 49.7693 47.1008 50.3475 41.6906 51.3004C36.4015 52.1252 31.7934 53.1084 27.8661 54.2498L27.36 23.729C31.655 22.4497 37.1217 21.186 43.7602 19.938C50.5219 18.6852 57.7232 17.9087 65.364 17.6085C70.9097 17.3906 75.605 17.9465 79.4499 19.2762C83.2928 20.4826 86.4034 22.1496 88.7818 24.2773C91.1601 26.405 92.8657 28.8676 93.8987 31.6651C95.0528 34.3345 95.6534 37.0874 95.7004 39.9236C95.7208 41.1568 95.6314 43.1964 95.4319 46.0423C95.3537 48.7601 94.9683 51.5517 94.2759 54.417C93.1294 59.6447 91.1676 64.0407 88.3904 67.6049C85.7343 71.041 83.0075 73.9245 80.2098 76.2556L80.2159 76.6256C82.9578 78.3688 84.7826 80.5799 85.6903 83.259C86.7212 85.9332 87.2632 88.8734 87.3164 92.0797C87.3614 94.7926 87.2205 97.4512 86.8937 100.055C86.5669 102.66 86.0604 105.579 85.3741 108.815C83.8886 115.907 81.7038 121.73 78.8197 126.286C75.9335 130.718 72.4159 134.25 68.2666 136.881C64.1174 139.512 59.4004 141.363 54.1154 142.434C48.8326 143.629 43.1102 144.347 36.9482 144.59C34.8532 144.672 32.5723 144.7 30.1055 144.673C27.7619 144.642 25.4173 144.549 23.0717 144.394C20.8493 144.235 18.6875 144.011 16.5863 143.724C14.6084 143.431 12.8759 143.067 11.3889 142.632L16.6164 112.071C18.7217 112.606 21.5654 113.049 25.1474 113.402C28.8507 113.627 32.859 113.654 37.1724 113.485C39.8836 113.378 42.2847 113.161 44.3757 112.832C46.4666 112.503 48.1828 111.88 49.5241 110.963C50.9866 109.919 52.0722 108.457 52.781 106.578C53.4897 104.7 53.8165 102.095 53.7613 98.7658Z" stroke="white" stroke-width="20" mask="url(#path-1-outside-1_555_549)"/>
<path d="M153.649 13.7696C164.987 13.3241 173.28 15.1577 178.527 19.2704C183.773 23.2598 186.468 29.6322 186.613 38.3877C186.691 43.0737 186.525 47.9544 186.116 53.0298C185.83 58.1002 185.358 63.1164 184.701 68.0781C184.166 73.0349 183.444 77.8141 182.534 82.4155C181.747 87.0121 180.953 91.1771 180.151 94.9105C177.848 104.749 175.327 112.622 172.589 118.53C169.974 124.432 166.783 129.061 163.015 132.418C159.246 135.651 154.72 137.865 149.437 139.059C144.154 140.254 137.754 140.999 130.237 141.294C118.899 141.74 110.607 139.968 105.361 135.979C100.114 131.866 97.4175 125.432 97.2723 116.676C97.1946 111.99 97.2987 107.112 97.5845 102.042C97.9936 96.9662 98.4654 91.9501 98.9998 86.9932C99.6574 82.0315 100.38 77.2524 101.167 72.6558C101.954 68.0592 102.81 63.8918 103.734 60.1535C106.037 50.3147 108.497 42.4441 111.112 36.5417C113.85 30.6345 117.104 26.0643 120.873 22.8313C124.64 19.475 129.165 17.1995 134.448 16.0047C139.731 14.81 146.131 14.0649 153.649 13.7696ZM148.215 87.6509C148.665 85.0419 149.232 82.0581 149.916 78.6995C150.598 75.2176 151.215 71.4915 151.766 67.5211C152.44 63.546 152.989 59.514 153.415 55.4252C153.961 51.2082 154.324 47.0601 154.503 42.981C153.513 42.7731 152.217 42.7006 150.615 42.7636C148.52 42.8459 146.738 43.2244 145.27 43.8991C143.922 44.4456 142.647 45.6063 141.443 47.3812C140.362 49.1512 139.356 51.6587 138.423 54.9036C137.611 58.0204 136.694 62.1903 135.671 67.4131C135.097 70.027 134.47 73.0749 133.788 76.5568C133.227 79.9105 132.609 83.575 131.935 87.5502C131.382 91.3972 130.833 95.4292 130.286 99.6461C129.737 103.74 129.373 107.826 129.194 111.905C130.184 112.113 131.542 112.183 133.267 112.115C135.239 112.038 136.96 111.724 138.431 111.172C139.9 110.498 141.174 109.275 142.255 107.505C143.459 105.73 144.466 103.284 145.278 100.168C146.213 97.046 147.192 92.8738 148.215 87.6509Z" stroke="white" stroke-width="20" mask="url(#path-1-outside-1_555_549)"/>
<path d="M246.98 10.1026C258.318 9.6571 266.611 11.4907 271.858 15.6034C277.104 19.5928 279.799 25.9652 279.944 34.7207C280.022 39.4067 279.857 44.2874 279.447 49.3628C279.162 54.4333 278.69 59.4494 278.032 64.4111C277.498 69.3679 276.775 74.1471 275.865 78.7485C275.078 83.3451 274.284 87.5101 273.483 91.2435C271.179 101.082 268.659 108.955 265.92 114.863C263.305 120.765 260.114 125.394 256.347 128.751C252.577 131.984 248.051 134.198 242.769 135.392C237.486 136.587 231.085 137.332 223.568 137.627C212.23 138.073 203.938 136.301 198.693 132.312C193.445 128.199 190.749 121.765 190.604 113.009C190.526 108.323 190.63 103.445 190.916 98.3746C191.325 93.2992 191.797 88.2831 192.331 83.3262C192.989 78.3645 193.711 73.5854 194.498 68.9888C195.285 64.3922 196.141 60.2248 197.065 56.4865C199.369 46.6477 201.828 38.7771 204.443 32.8747C207.181 26.9675 210.435 22.3973 214.204 19.1643C217.972 15.808 222.497 13.5325 227.78 12.3377C233.062 11.143 239.463 10.3979 246.98 10.1026ZM241.546 83.9839C241.996 81.3749 242.563 78.3911 243.247 75.0325C243.93 71.5506 244.546 67.8245 245.097 63.8541C245.771 59.879 246.321 55.847 246.746 51.7582C247.293 47.5412 247.656 43.3932 247.835 39.314C246.845 39.1061 245.548 39.0337 243.946 39.0966C241.851 39.1789 240.069 39.5574 238.601 40.2321C237.253 40.7786 235.978 41.9393 234.774 43.7142C233.694 45.4842 232.687 47.9917 231.754 51.2366C230.943 54.3534 230.025 58.5233 229.002 63.7461C228.429 66.36 227.801 69.4079 227.119 72.8898C226.558 76.2435 225.94 79.908 225.266 83.8832C224.714 87.7302 224.164 91.7622 223.617 95.9791C223.068 100.073 222.705 104.159 222.526 108.238C223.516 108.446 224.873 108.516 226.599 108.448C228.57 108.371 230.292 108.057 231.762 107.505C233.231 106.831 234.506 105.608 235.586 103.838C236.79 102.063 237.797 99.6175 238.609 96.5007C239.544 93.379 240.523 89.2068 241.546 83.9839Z" stroke="white" stroke-width="20" mask="url(#path-1-outside-1_555_549)"/>
<path d="M322.859 32.4543L350.138 31.3825L337.734 106.458L357.819 105.669L351.779 130.369L306.364 132.153L322.859 32.4543Z" stroke="white" stroke-width="20" mask="url(#path-1-outside-1_555_549)"/>
<path d="M428.569 28.3009L422.675 52.6949L400.492 53.5665L398.318 67.1589L420.35 66.2932L416.529 89.105L394.496 89.9707L392.185 104.319L417.515 103.324L411.475 128.023L360.814 130.014L377.309 30.315L428.569 28.3009Z" stroke="white" stroke-width="20" mask="url(#path-1-outside-1_555_549)"/>
<path d="M465.771 26.8393L449.277 126.538L421.998 127.61L438.492 27.9111L465.771 26.8393Z" stroke="white" stroke-width="20" mask="url(#path-1-outside-1_555_549)"/>
</svg>
