<svg width="453" height="153" viewBox="0 0 453 153" fill="none" xmlns="http://www.w3.org/2000/svg">
<mask id="path-1-outside-1_561_553" maskUnits="userSpaceOnUse" x="-0.217163" y="0.0232239" width="453" height="153" fill="black">
<rect fill="white" x="-0.217163" y="0.0232239" width="453" height="153"/>
<path d="M55.1801 18.8384L70.5233 18.2356L50.1799 141.198L16.7207 142.512L30.8071 54.9641L11.2767 59.6184L10.7828 29.8375L55.1801 18.8384Z"/>
<path d="M128.016 13.7555C139.354 13.3101 147.647 15.1437 152.894 19.2564C158.14 23.2458 160.835 29.6182 160.98 38.3737C161.058 43.0597 160.892 47.9404 160.483 53.0157C160.197 58.0862 159.726 63.1023 159.068 68.064C158.534 73.0209 157.811 77.8 156.901 82.4015C156.114 86.9981 155.32 91.1631 154.519 94.8965C152.215 104.735 149.695 112.608 146.956 118.516C144.341 124.418 141.15 129.047 137.383 132.404C133.613 135.637 129.087 137.851 123.804 139.045C118.522 140.24 112.121 140.985 104.604 141.28C93.2659 141.726 84.9741 139.954 79.7286 135.965C74.481 131.852 71.7847 125.418 71.6395 116.662C71.5618 111.976 71.6658 107.098 71.9517 102.028C72.3608 96.9522 72.8326 91.9361 73.367 86.9792C74.0246 82.0175 74.747 77.2383 75.534 72.6417C76.321 68.0451 77.1768 63.8777 78.1013 60.1395C80.4045 50.3007 82.8637 42.4301 85.4788 36.5277C88.2172 30.6204 91.471 26.0503 95.2403 22.8173C99.0075 19.461 103.533 17.1854 108.815 15.9907C114.098 14.7959 120.499 14.0509 128.016 13.7555ZM122.582 87.6369C123.032 85.0279 123.599 82.0441 124.283 78.6855C124.966 75.2036 125.582 71.4774 126.133 67.5071C126.807 63.5319 127.356 59.4999 127.782 55.4111C128.329 51.1942 128.691 47.0461 128.87 42.967C127.88 42.7591 126.584 42.6866 124.982 42.7496C122.887 42.8319 121.105 43.2104 119.637 43.8851C118.289 44.4316 117.014 45.5923 115.81 47.3671C114.729 49.1371 113.723 51.6446 112.79 54.8896C111.979 58.0064 111.061 62.1762 110.038 67.3991C109.465 70.0129 108.837 73.0608 108.155 76.5427C107.594 79.8965 106.976 83.561 106.302 87.5361C105.749 91.3831 105.2 95.4151 104.653 99.6321C104.104 103.726 103.741 107.812 103.562 111.891C104.552 112.099 105.909 112.169 107.635 112.101C109.606 112.024 111.328 111.71 112.798 111.158C114.267 110.483 115.541 109.261 116.622 107.491C117.826 105.716 118.833 103.27 119.645 100.154C120.58 97.032 121.559 92.8597 122.582 87.6369Z"/>
<path d="M221.347 10.0885C232.685 9.64306 240.978 11.4767 246.226 15.5894C251.471 19.5788 254.167 25.9512 254.312 34.7067C254.389 39.3927 254.224 44.2734 253.815 49.3487C253.529 54.4192 253.057 59.4353 252.399 64.397C251.865 69.3539 251.143 74.133 250.232 78.7345C249.445 83.3311 248.651 87.4961 247.85 91.2295C245.547 101.068 243.026 108.941 240.287 114.849C237.672 120.751 234.481 125.38 230.714 128.737C226.945 131.97 222.419 134.184 217.136 135.378C211.853 136.573 205.453 137.318 197.935 137.613C186.597 138.059 178.305 136.287 173.06 132.298C167.812 128.185 165.116 121.751 164.971 112.995C164.893 108.309 164.997 103.431 165.283 98.3605C165.692 93.2852 166.164 88.2691 166.698 83.3122C167.356 78.3505 168.078 73.5714 168.865 68.9748C169.652 64.3782 170.508 60.2107 171.433 56.4725C173.736 46.6337 176.195 38.7631 178.81 32.8607C181.549 26.9534 184.802 22.3833 188.572 19.1503C192.339 15.794 196.864 13.5184 202.147 12.3237C207.43 11.1289 213.83 10.3839 221.347 10.0885ZM215.913 83.9699C216.363 81.3609 216.93 78.3771 217.615 75.0185C218.297 71.5366 218.913 67.8104 219.464 63.8401C220.138 59.8649 220.688 55.8329 221.113 51.7441C221.66 47.5272 222.023 43.3791 222.202 39.3C221.212 39.0921 219.916 39.0196 218.314 39.0826C216.219 39.1649 214.437 39.5434 212.968 40.2181C211.621 40.7646 210.345 41.9253 209.141 43.7001C208.061 45.4701 207.054 47.9776 206.121 51.2226C205.31 54.3394 204.392 58.5092 203.369 63.7321C202.796 66.3459 202.168 69.3938 201.486 72.8757C200.925 76.2295 200.308 79.894 199.634 83.8691C199.081 87.7162 198.531 91.7481 197.984 95.9651C197.436 100.059 197.072 104.145 196.893 108.224C197.883 108.432 199.24 108.502 200.966 108.434C202.938 108.357 204.659 108.043 206.13 107.491C207.598 106.816 208.873 105.594 209.953 103.824C211.157 102.049 212.165 99.6035 212.976 96.4866C213.911 93.365 214.89 89.1927 215.913 83.9699Z"/>
<path d="M297.226 32.4403L324.505 31.3685L312.102 106.444L332.186 105.655L326.146 130.355L280.731 132.139L297.226 32.4403Z"/>
<path d="M402.937 28.2869L397.042 52.6809L374.859 53.5525L372.685 67.1448L394.718 66.2792L390.896 89.0909L368.863 89.9566L366.552 104.305L391.882 103.31L385.842 128.009L335.182 130L351.676 30.3009L402.937 28.2869Z"/>
<path d="M440.138 26.8252L423.644 126.524L396.365 127.596L412.859 27.897L440.138 26.8252Z"/>
</mask>
<path d="M55.1801 18.8384L70.5233 18.2356L50.1799 141.198L16.7207 142.512L30.8071 54.9641L11.2767 59.6184L10.7828 29.8375L55.1801 18.8384Z" fill="#FF0000"/>
<path d="M128.016 13.7555C139.354 13.3101 147.647 15.1437 152.894 19.2564C158.14 23.2458 160.835 29.6182 160.98 38.3737C161.058 43.0597 160.892 47.9404 160.483 53.0157C160.197 58.0862 159.726 63.1023 159.068 68.064C158.534 73.0209 157.811 77.8 156.901 82.4015C156.114 86.9981 155.32 91.1631 154.519 94.8965C152.215 104.735 149.695 112.608 146.956 118.516C144.341 124.418 141.15 129.047 137.383 132.404C133.613 135.637 129.087 137.851 123.804 139.045C118.522 140.24 112.121 140.985 104.604 141.28C93.2659 141.726 84.9741 139.954 79.7286 135.965C74.481 131.852 71.7847 125.418 71.6395 116.662C71.5618 111.976 71.6658 107.098 71.9517 102.028C72.3608 96.9522 72.8326 91.9361 73.367 86.9792C74.0246 82.0175 74.747 77.2383 75.534 72.6417C76.321 68.0451 77.1768 63.8777 78.1013 60.1395C80.4045 50.3007 82.8637 42.4301 85.4788 36.5277C88.2172 30.6204 91.471 26.0503 95.2403 22.8173C99.0075 19.461 103.533 17.1854 108.815 15.9907C114.098 14.7959 120.499 14.0509 128.016 13.7555ZM122.582 87.6369C123.032 85.0279 123.599 82.0441 124.283 78.6855C124.966 75.2036 125.582 71.4774 126.133 67.5071C126.807 63.5319 127.356 59.4999 127.782 55.4111C128.329 51.1942 128.691 47.0461 128.87 42.967C127.88 42.7591 126.584 42.6866 124.982 42.7496C122.887 42.8319 121.105 43.2104 119.637 43.8851C118.289 44.4316 117.014 45.5923 115.81 47.3671C114.729 49.1371 113.723 51.6446 112.79 54.8896C111.979 58.0064 111.061 62.1762 110.038 67.3991C109.465 70.0129 108.837 73.0608 108.155 76.5427C107.594 79.8965 106.976 83.561 106.302 87.5361C105.749 91.3831 105.2 95.4151 104.653 99.6321C104.104 103.726 103.741 107.812 103.562 111.891C104.552 112.099 105.909 112.169 107.635 112.101C109.606 112.024 111.328 111.71 112.798 111.158C114.267 110.483 115.541 109.261 116.622 107.491C117.826 105.716 118.833 103.27 119.645 100.154C120.58 97.032 121.559 92.8597 122.582 87.6369Z" fill="#FF0000"/>
<path d="M221.347 10.0885C232.685 9.64306 240.978 11.4767 246.226 15.5894C251.471 19.5788 254.167 25.9512 254.312 34.7067C254.389 39.3927 254.224 44.2734 253.815 49.3487C253.529 54.4192 253.057 59.4353 252.399 64.397C251.865 69.3539 251.143 74.133 250.232 78.7345C249.445 83.3311 248.651 87.4961 247.85 91.2295C245.547 101.068 243.026 108.941 240.287 114.849C237.672 120.751 234.481 125.38 230.714 128.737C226.945 131.97 222.419 134.184 217.136 135.378C211.853 136.573 205.453 137.318 197.935 137.613C186.597 138.059 178.305 136.287 173.06 132.298C167.812 128.185 165.116 121.751 164.971 112.995C164.893 108.309 164.997 103.431 165.283 98.3605C165.692 93.2852 166.164 88.2691 166.698 83.3122C167.356 78.3505 168.078 73.5714 168.865 68.9748C169.652 64.3782 170.508 60.2107 171.433 56.4725C173.736 46.6337 176.195 38.7631 178.81 32.8607C181.549 26.9534 184.802 22.3833 188.572 19.1503C192.339 15.794 196.864 13.5184 202.147 12.3237C207.43 11.1289 213.83 10.3839 221.347 10.0885ZM215.913 83.9699C216.363 81.3609 216.93 78.3771 217.615 75.0185C218.297 71.5366 218.913 67.8104 219.464 63.8401C220.138 59.8649 220.688 55.8329 221.113 51.7441C221.66 47.5272 222.023 43.3791 222.202 39.3C221.212 39.0921 219.916 39.0196 218.314 39.0826C216.219 39.1649 214.437 39.5434 212.968 40.2181C211.621 40.7646 210.345 41.9253 209.141 43.7001C208.061 45.4701 207.054 47.9776 206.121 51.2226C205.31 54.3394 204.392 58.5092 203.369 63.7321C202.796 66.3459 202.168 69.3938 201.486 72.8757C200.925 76.2295 200.308 79.894 199.634 83.8691C199.081 87.7162 198.531 91.7481 197.984 95.9651C197.436 100.059 197.072 104.145 196.893 108.224C197.883 108.432 199.24 108.502 200.966 108.434C202.938 108.357 204.659 108.043 206.13 107.491C207.598 106.816 208.873 105.594 209.953 103.824C211.157 102.049 212.165 99.6035 212.976 96.4866C213.911 93.365 214.89 89.1927 215.913 83.9699Z" fill="#FF0000"/>
<path d="M297.226 32.4403L324.505 31.3685L312.102 106.444L332.186 105.655L326.146 130.355L280.731 132.139L297.226 32.4403Z" fill="#FF0000"/>
<path d="M402.937 28.2869L397.042 52.6809L374.859 53.5525L372.685 67.1448L394.718 66.2792L390.896 89.0909L368.863 89.9566L366.552 104.305L391.882 103.31L385.842 128.009L335.182 130L351.676 30.3009L402.937 28.2869Z" fill="#FF0000"/>
<path d="M440.138 26.8252L423.644 126.524L396.365 127.596L412.859 27.897L440.138 26.8252Z" fill="#FF0000"/>
<path d="M55.1801 18.8384L70.5233 18.2356L50.1799 141.198L16.7207 142.512L30.8071 54.9641L11.2767 59.6184L10.7828 29.8375L55.1801 18.8384Z" stroke="white" stroke-width="20" mask="url(#path-1-outside-1_561_553)"/>
<path d="M128.016 13.7555C139.354 13.3101 147.647 15.1437 152.894 19.2564C158.14 23.2458 160.835 29.6182 160.98 38.3737C161.058 43.0597 160.892 47.9404 160.483 53.0157C160.197 58.0862 159.726 63.1023 159.068 68.064C158.534 73.0209 157.811 77.8 156.901 82.4015C156.114 86.9981 155.32 91.1631 154.519 94.8965C152.215 104.735 149.695 112.608 146.956 118.516C144.341 124.418 141.15 129.047 137.383 132.404C133.613 135.637 129.087 137.851 123.804 139.045C118.522 140.24 112.121 140.985 104.604 141.28C93.2659 141.726 84.9741 139.954 79.7286 135.965C74.481 131.852 71.7847 125.418 71.6395 116.662C71.5618 111.976 71.6658 107.098 71.9517 102.028C72.3608 96.9522 72.8326 91.9361 73.367 86.9792C74.0246 82.0175 74.747 77.2383 75.534 72.6417C76.321 68.0451 77.1768 63.8777 78.1013 60.1395C80.4045 50.3007 82.8637 42.4301 85.4788 36.5277C88.2172 30.6204 91.471 26.0503 95.2403 22.8173C99.0075 19.461 103.533 17.1854 108.815 15.9907C114.098 14.7959 120.499 14.0509 128.016 13.7555ZM122.582 87.6369C123.032 85.0279 123.599 82.0441 124.283 78.6855C124.966 75.2036 125.582 71.4774 126.133 67.5071C126.807 63.5319 127.356 59.4999 127.782 55.4111C128.329 51.1942 128.691 47.0461 128.87 42.967C127.88 42.7591 126.584 42.6866 124.982 42.7496C122.887 42.8319 121.105 43.2104 119.637 43.8851C118.289 44.4316 117.014 45.5923 115.81 47.3671C114.729 49.1371 113.723 51.6446 112.79 54.8896C111.979 58.0064 111.061 62.1762 110.038 67.3991C109.465 70.0129 108.837 73.0608 108.155 76.5427C107.594 79.8965 106.976 83.561 106.302 87.5361C105.749 91.3831 105.2 95.4151 104.653 99.6321C104.104 103.726 103.741 107.812 103.562 111.891C104.552 112.099 105.909 112.169 107.635 112.101C109.606 112.024 111.328 111.71 112.798 111.158C114.267 110.483 115.541 109.261 116.622 107.491C117.826 105.716 118.833 103.27 119.645 100.154C120.58 97.032 121.559 92.8597 122.582 87.6369Z" stroke="white" stroke-width="20" mask="url(#path-1-outside-1_561_553)"/>
<path d="M221.347 10.0885C232.685 9.64306 240.978 11.4767 246.226 15.5894C251.471 19.5788 254.167 25.9512 254.312 34.7067C254.389 39.3927 254.224 44.2734 253.815 49.3487C253.529 54.4192 253.057 59.4353 252.399 64.397C251.865 69.3539 251.143 74.133 250.232 78.7345C249.445 83.3311 248.651 87.4961 247.85 91.2295C245.547 101.068 243.026 108.941 240.287 114.849C237.672 120.751 234.481 125.38 230.714 128.737C226.945 131.97 222.419 134.184 217.136 135.378C211.853 136.573 205.453 137.318 197.935 137.613C186.597 138.059 178.305 136.287 173.06 132.298C167.812 128.185 165.116 121.751 164.971 112.995C164.893 108.309 164.997 103.431 165.283 98.3605C165.692 93.2852 166.164 88.2691 166.698 83.3122C167.356 78.3505 168.078 73.5714 168.865 68.9748C169.652 64.3782 170.508 60.2107 171.433 56.4725C173.736 46.6337 176.195 38.7631 178.81 32.8607C181.549 26.9534 184.802 22.3833 188.572 19.1503C192.339 15.794 196.864 13.5184 202.147 12.3237C207.43 11.1289 213.83 10.3839 221.347 10.0885ZM215.913 83.9699C216.363 81.3609 216.93 78.3771 217.615 75.0185C218.297 71.5366 218.913 67.8104 219.464 63.8401C220.138 59.8649 220.688 55.8329 221.113 51.7441C221.66 47.5272 222.023 43.3791 222.202 39.3C221.212 39.0921 219.916 39.0196 218.314 39.0826C216.219 39.1649 214.437 39.5434 212.968 40.2181C211.621 40.7646 210.345 41.9253 209.141 43.7001C208.061 45.4701 207.054 47.9776 206.121 51.2226C205.31 54.3394 204.392 58.5092 203.369 63.7321C202.796 66.3459 202.168 69.3938 201.486 72.8757C200.925 76.2295 200.308 79.894 199.634 83.8691C199.081 87.7162 198.531 91.7481 197.984 95.9651C197.436 100.059 197.072 104.145 196.893 108.224C197.883 108.432 199.24 108.502 200.966 108.434C202.938 108.357 204.659 108.043 206.13 107.491C207.598 106.816 208.873 105.594 209.953 103.824C211.157 102.049 212.165 99.6035 212.976 96.4866C213.911 93.365 214.89 89.1927 215.913 83.9699Z" stroke="white" stroke-width="20" mask="url(#path-1-outside-1_561_553)"/>
<path d="M297.226 32.4403L324.505 31.3685L312.102 106.444L332.186 105.655L326.146 130.355L280.731 132.139L297.226 32.4403Z" stroke="white" stroke-width="20" mask="url(#path-1-outside-1_561_553)"/>
<path d="M402.937 28.2869L397.042 52.6809L374.859 53.5525L372.685 67.1448L394.718 66.2792L390.896 89.0909L368.863 89.9566L366.552 104.305L391.882 103.31L385.842 128.009L335.182 130L351.676 30.3009L402.937 28.2869Z" stroke="white" stroke-width="20" mask="url(#path-1-outside-1_561_553)"/>
<path d="M440.138 26.8252L423.644 126.524L396.365 127.596L412.859 27.897L440.138 26.8252Z" stroke="white" stroke-width="20" mask="url(#path-1-outside-1_561_553)"/>
</svg>
