<svg width="478" height="155" viewBox="0 0 478 155" fill="none" xmlns="http://www.w3.org/2000/svg">
<mask id="path-1-outside-1_560_551" maskUnits="userSpaceOnUse" x="0.745636" y="0.497467" width="478" height="155" fill="black">
<rect fill="white" x="0.745636" y="0.497467" width="478" height="155"/>
<path d="M60.6905 53.6154C60.666 52.1356 60.4596 50.848 60.0715 49.7527C53.2955 50.1423 47.2034 50.8753 41.7952 51.9515C36.385 52.9045 31.5334 54.0823 27.2405 55.4849L26.7222 24.2242C29.0514 23.3923 31.6898 22.61 34.6373 21.8772C37.5848 21.1444 40.6576 20.5301 43.8556 20.0342C47.0516 19.415 50.3113 18.9168 53.6347 18.5394C57.0812 18.1572 60.4066 17.9032 63.6108 17.7773C74.0861 17.3657 81.9505 19.4012 87.2043 23.8839C92.458 28.3665 95.1595 35.1089 95.3087 44.111C95.3496 46.5773 95.2128 49.4825 94.8983 52.8266C94.5838 56.1707 93.9016 59.6526 92.8518 63.2723C91.7999 66.7688 90.1945 70.3487 88.0355 74.012C85.9977 77.5472 83.2154 80.8031 79.6885 83.7798L53.4187 105.913C51.5947 107.465 50.7061 109.66 50.7532 112.496L86.4307 111.094L78.9818 141.557L10.7694 144.237C10.6937 139.675 10.7988 134.858 11.0847 129.788C11.3706 124.717 12.1504 119.689 13.4243 114.703C14.5749 109.722 16.3457 104.963 18.7369 100.427C21.126 95.7674 24.3253 91.6313 28.3349 88.0186L55.8619 63.6151C57.9283 61.8064 59.2574 60.15 59.849 58.646C60.4386 57.0187 60.7191 55.3418 60.6905 53.6154Z"/>
<path d="M153.901 14.2298C165.239 13.7843 173.531 15.6179 178.779 19.7306C184.024 23.72 186.72 30.0924 186.865 38.8479C186.943 43.5339 186.777 48.4146 186.368 53.49C186.082 58.5605 185.61 63.5766 184.953 68.5383C184.418 73.4951 183.696 78.2743 182.786 82.8757C181.999 87.4723 181.204 91.6373 180.403 95.3707C178.1 105.21 175.579 113.083 172.841 118.99C170.226 124.892 167.034 129.522 163.267 132.878C159.498 136.111 154.972 138.325 149.689 139.52C144.406 140.714 138.006 141.459 130.488 141.755C119.15 142.2 110.859 140.428 105.613 136.439C100.366 132.326 97.6692 125.892 97.524 117.137C97.4463 112.451 97.5504 107.572 97.8363 102.502C98.2454 97.4264 98.7172 92.4103 99.2515 87.4535C99.9092 82.4917 100.632 77.7126 101.419 73.116C102.206 68.5194 103.061 64.352 103.986 60.6138C106.289 50.7749 108.748 42.9043 111.363 37.0019C114.102 31.0947 117.356 26.5245 121.125 23.2915C124.892 19.9352 129.417 17.6597 134.7 16.4649C139.983 15.2702 146.383 14.5251 153.901 14.2298ZM148.467 88.1111C148.917 85.5021 149.484 82.5183 150.168 79.1597C150.85 75.6778 151.467 71.9517 152.017 67.9813C152.691 64.0062 153.241 59.9742 153.666 55.8854C154.213 51.6684 154.576 47.5204 154.755 43.4412C153.765 43.2333 152.469 43.1609 150.867 43.2238C148.772 43.3061 146.99 43.6846 145.521 44.3593C144.174 44.9058 142.898 46.0665 141.695 47.8414C140.614 49.6114 139.607 52.1189 138.675 55.3638C137.863 58.4806 136.946 62.6505 135.922 67.8733C135.349 70.4872 134.721 73.5351 134.039 77.017C133.478 80.3707 132.861 84.0352 132.187 88.0104C131.634 91.8574 131.084 95.8894 130.538 100.106C129.989 104.2 129.625 108.286 129.446 112.366C130.436 112.573 131.794 112.643 133.519 112.576C135.491 112.498 137.212 112.184 138.683 111.632C140.151 110.958 141.426 109.735 142.507 107.965C143.71 106.191 144.718 103.745 145.529 100.628C146.464 97.5062 147.443 93.334 148.467 88.1111Z"/>
<path d="M247.232 10.5628C258.57 10.1173 266.863 11.9509 272.11 16.0636C277.356 20.053 280.051 26.4255 280.196 35.1809C280.274 39.8669 280.108 44.7476 279.699 49.823C279.413 54.8935 278.942 59.9096 278.284 64.8713C277.749 69.8281 277.027 74.6073 276.117 79.2087C275.33 83.8053 274.536 87.9703 273.734 91.7037C271.431 101.543 268.91 109.416 266.172 115.323C263.557 121.225 260.366 125.855 256.598 129.211C252.829 132.444 248.303 134.658 243.02 135.853C237.737 137.047 231.337 137.792 223.82 138.088C212.482 138.533 204.19 136.761 198.944 132.772C193.697 128.659 191.001 122.225 190.855 113.47C190.778 108.784 190.882 103.905 191.168 98.8348C191.577 93.7594 192.048 88.7433 192.583 83.7865C193.24 78.8247 193.963 74.0456 194.75 69.449C195.537 64.8524 196.393 60.685 197.317 56.9468C199.62 47.1079 202.08 39.2373 204.695 33.3349C207.433 27.4277 210.687 22.8575 214.456 19.6245C218.223 16.2682 222.748 13.9927 228.031 12.7979C233.314 11.6032 239.714 10.8581 247.232 10.5628ZM241.798 84.4441C242.248 81.8351 242.815 78.8513 243.499 75.4927C244.181 72.0108 244.798 68.2847 245.349 64.3143C246.023 60.3392 246.572 56.3072 246.998 52.2184C247.544 48.0014 247.907 43.8534 248.086 39.7742C247.096 39.5663 245.8 39.4939 244.198 39.5568C242.103 39.6391 240.321 40.0176 238.853 40.6923C237.505 41.2388 236.23 42.3995 235.026 44.1744C233.945 45.9444 232.939 48.4519 232.006 51.6968C231.194 54.8136 230.277 58.9835 229.254 64.2063C228.68 66.8202 228.053 69.8681 227.371 73.35C226.81 76.7037 226.192 80.3682 225.518 84.3434C224.965 88.1904 224.416 92.2224 223.869 96.4394C223.32 100.533 222.956 104.619 222.777 108.699C223.767 108.906 225.125 108.976 226.85 108.909C228.822 108.831 230.543 108.517 232.014 107.965C233.483 107.291 234.757 106.068 235.838 104.298C237.042 102.524 238.049 100.078 238.861 96.9609C239.796 93.8392 240.775 89.667 241.798 84.4441Z"/>
<path d="M323.111 32.9145L350.39 31.8427L337.986 106.918L358.071 106.129L352.031 130.829L306.616 132.613L323.111 32.9145Z"/>
<path d="M428.821 28.7611L422.926 53.1552L400.744 54.0267L398.569 67.6191L420.602 66.7534L416.781 89.5652L394.748 90.4309L392.436 104.779L417.767 103.784L411.727 128.484L361.066 130.474L377.561 30.7752L428.821 28.7611Z"/>
<path d="M466.023 27.2995L449.528 126.998L422.249 128.07L438.744 28.3713L466.023 27.2995Z"/>
</mask>
<path d="M60.6905 53.6154C60.666 52.1356 60.4596 50.848 60.0715 49.7527C53.2955 50.1423 47.2034 50.8753 41.7952 51.9515C36.385 52.9045 31.5334 54.0823 27.2405 55.4849L26.7222 24.2242C29.0514 23.3923 31.6898 22.61 34.6373 21.8772C37.5848 21.1444 40.6576 20.5301 43.8556 20.0342C47.0516 19.415 50.3113 18.9168 53.6347 18.5394C57.0812 18.1572 60.4066 17.9032 63.6108 17.7773C74.0861 17.3657 81.9505 19.4012 87.2043 23.8839C92.458 28.3665 95.1595 35.1089 95.3087 44.111C95.3496 46.5773 95.2128 49.4825 94.8983 52.8266C94.5838 56.1707 93.9016 59.6526 92.8518 63.2723C91.7999 66.7688 90.1945 70.3487 88.0355 74.012C85.9977 77.5472 83.2154 80.8031 79.6885 83.7798L53.4187 105.913C51.5947 107.465 50.7061 109.66 50.7532 112.496L86.4307 111.094L78.9818 141.557L10.7694 144.237C10.6937 139.675 10.7988 134.858 11.0847 129.788C11.3706 124.717 12.1504 119.689 13.4243 114.703C14.5749 109.722 16.3457 104.963 18.7369 100.427C21.126 95.7674 24.3253 91.6313 28.3349 88.0186L55.8619 63.6151C57.9283 61.8064 59.2574 60.15 59.849 58.646C60.4386 57.0187 60.7191 55.3418 60.6905 53.6154Z" fill="#FF0000"/>
<path d="M153.901 14.2298C165.239 13.7843 173.531 15.6179 178.779 19.7306C184.024 23.72 186.72 30.0924 186.865 38.8479C186.943 43.5339 186.777 48.4146 186.368 53.49C186.082 58.5605 185.61 63.5766 184.953 68.5383C184.418 73.4951 183.696 78.2743 182.786 82.8757C181.999 87.4723 181.204 91.6373 180.403 95.3707C178.1 105.21 175.579 113.083 172.841 118.99C170.226 124.892 167.034 129.522 163.267 132.878C159.498 136.111 154.972 138.325 149.689 139.52C144.406 140.714 138.006 141.459 130.488 141.755C119.15 142.2 110.859 140.428 105.613 136.439C100.366 132.326 97.6692 125.892 97.524 117.137C97.4463 112.451 97.5504 107.572 97.8363 102.502C98.2454 97.4264 98.7172 92.4103 99.2515 87.4535C99.9092 82.4917 100.632 77.7126 101.419 73.116C102.206 68.5194 103.061 64.352 103.986 60.6138C106.289 50.7749 108.748 42.9043 111.363 37.0019C114.102 31.0947 117.356 26.5245 121.125 23.2915C124.892 19.9352 129.417 17.6597 134.7 16.4649C139.983 15.2702 146.383 14.5251 153.901 14.2298ZM148.467 88.1111C148.917 85.5021 149.484 82.5183 150.168 79.1597C150.85 75.6778 151.467 71.9517 152.017 67.9813C152.691 64.0062 153.241 59.9742 153.666 55.8854C154.213 51.6684 154.576 47.5204 154.755 43.4412C153.765 43.2333 152.469 43.1609 150.867 43.2238C148.772 43.3061 146.99 43.6846 145.521 44.3593C144.174 44.9058 142.898 46.0665 141.695 47.8414C140.614 49.6114 139.607 52.1189 138.675 55.3638C137.863 58.4806 136.946 62.6505 135.922 67.8733C135.349 70.4872 134.721 73.5351 134.039 77.017C133.478 80.3707 132.861 84.0352 132.187 88.0104C131.634 91.8574 131.084 95.8894 130.538 100.106C129.989 104.2 129.625 108.286 129.446 112.366C130.436 112.573 131.794 112.643 133.519 112.576C135.491 112.498 137.212 112.184 138.683 111.632C140.151 110.958 141.426 109.735 142.507 107.965C143.71 106.191 144.718 103.745 145.529 100.628C146.464 97.5062 147.443 93.334 148.467 88.1111Z" fill="#FF0000"/>
<path d="M247.232 10.5628C258.57 10.1173 266.863 11.9509 272.11 16.0636C277.356 20.053 280.051 26.4255 280.196 35.1809C280.274 39.8669 280.108 44.7476 279.699 49.823C279.413 54.8935 278.942 59.9096 278.284 64.8713C277.749 69.8281 277.027 74.6073 276.117 79.2087C275.33 83.8053 274.536 87.9703 273.734 91.7037C271.431 101.543 268.91 109.416 266.172 115.323C263.557 121.225 260.366 125.855 256.598 129.211C252.829 132.444 248.303 134.658 243.02 135.853C237.737 137.047 231.337 137.792 223.82 138.088C212.482 138.533 204.19 136.761 198.944 132.772C193.697 128.659 191.001 122.225 190.855 113.47C190.778 108.784 190.882 103.905 191.168 98.8348C191.577 93.7594 192.048 88.7433 192.583 83.7865C193.24 78.8247 193.963 74.0456 194.75 69.449C195.537 64.8524 196.393 60.685 197.317 56.9468C199.62 47.1079 202.08 39.2373 204.695 33.3349C207.433 27.4277 210.687 22.8575 214.456 19.6245C218.223 16.2682 222.748 13.9927 228.031 12.7979C233.314 11.6032 239.714 10.8581 247.232 10.5628ZM241.798 84.4441C242.248 81.8351 242.815 78.8513 243.499 75.4927C244.181 72.0108 244.798 68.2847 245.349 64.3143C246.023 60.3392 246.572 56.3072 246.998 52.2184C247.544 48.0014 247.907 43.8534 248.086 39.7742C247.096 39.5663 245.8 39.4939 244.198 39.5568C242.103 39.6391 240.321 40.0176 238.853 40.6923C237.505 41.2388 236.23 42.3995 235.026 44.1744C233.945 45.9444 232.939 48.4519 232.006 51.6968C231.194 54.8136 230.277 58.9835 229.254 64.2063C228.68 66.8202 228.053 69.8681 227.371 73.35C226.81 76.7037 226.192 80.3682 225.518 84.3434C224.965 88.1904 224.416 92.2224 223.869 96.4394C223.32 100.533 222.956 104.619 222.777 108.699C223.767 108.906 225.125 108.976 226.85 108.909C228.822 108.831 230.543 108.517 232.014 107.965C233.483 107.291 234.757 106.068 235.838 104.298C237.042 102.524 238.049 100.078 238.861 96.9609C239.796 93.8392 240.775 89.667 241.798 84.4441Z" fill="#FF0000"/>
<path d="M323.111 32.9145L350.39 31.8427L337.986 106.918L358.071 106.129L352.031 130.829L306.616 132.613L323.111 32.9145Z" fill="#FF0000"/>
<path d="M428.821 28.7611L422.926 53.1552L400.744 54.0267L398.569 67.6191L420.602 66.7534L416.781 89.5652L394.748 90.4309L392.436 104.779L417.767 103.784L411.727 128.484L361.066 130.474L377.561 30.7752L428.821 28.7611Z" fill="#FF0000"/>
<path d="M466.023 27.2995L449.528 126.998L422.249 128.07L438.744 28.3713L466.023 27.2995Z" fill="#FF0000"/>
<path d="M60.6905 53.6154C60.666 52.1356 60.4596 50.848 60.0715 49.7527C53.2955 50.1423 47.2034 50.8753 41.7952 51.9515C36.385 52.9045 31.5334 54.0823 27.2405 55.4849L26.7222 24.2242C29.0514 23.3923 31.6898 22.61 34.6373 21.8772C37.5848 21.1444 40.6576 20.5301 43.8556 20.0342C47.0516 19.415 50.3113 18.9168 53.6347 18.5394C57.0812 18.1572 60.4066 17.9032 63.6108 17.7773C74.0861 17.3657 81.9505 19.4012 87.2043 23.8839C92.458 28.3665 95.1595 35.1089 95.3087 44.111C95.3496 46.5773 95.2128 49.4825 94.8983 52.8266C94.5838 56.1707 93.9016 59.6526 92.8518 63.2723C91.7999 66.7688 90.1945 70.3487 88.0355 74.012C85.9977 77.5472 83.2154 80.8031 79.6885 83.7798L53.4187 105.913C51.5947 107.465 50.7061 109.66 50.7532 112.496L86.4307 111.094L78.9818 141.557L10.7694 144.237C10.6937 139.675 10.7988 134.858 11.0847 129.788C11.3706 124.717 12.1504 119.689 13.4243 114.703C14.5749 109.722 16.3457 104.963 18.7369 100.427C21.126 95.7674 24.3253 91.6313 28.3349 88.0186L55.8619 63.6151C57.9283 61.8064 59.2574 60.15 59.849 58.646C60.4386 57.0187 60.7191 55.3418 60.6905 53.6154Z" stroke="white" stroke-width="20" mask="url(#path-1-outside-1_560_551)"/>
<path d="M153.901 14.2298C165.239 13.7843 173.531 15.6179 178.779 19.7306C184.024 23.72 186.72 30.0924 186.865 38.8479C186.943 43.5339 186.777 48.4146 186.368 53.49C186.082 58.5605 185.61 63.5766 184.953 68.5383C184.418 73.4951 183.696 78.2743 182.786 82.8757C181.999 87.4723 181.204 91.6373 180.403 95.3707C178.1 105.21 175.579 113.083 172.841 118.99C170.226 124.892 167.034 129.522 163.267 132.878C159.498 136.111 154.972 138.325 149.689 139.52C144.406 140.714 138.006 141.459 130.488 141.755C119.15 142.2 110.859 140.428 105.613 136.439C100.366 132.326 97.6692 125.892 97.524 117.137C97.4463 112.451 97.5504 107.572 97.8363 102.502C98.2454 97.4264 98.7172 92.4103 99.2515 87.4535C99.9092 82.4917 100.632 77.7126 101.419 73.116C102.206 68.5194 103.061 64.352 103.986 60.6138C106.289 50.7749 108.748 42.9043 111.363 37.0019C114.102 31.0947 117.356 26.5245 121.125 23.2915C124.892 19.9352 129.417 17.6597 134.7 16.4649C139.983 15.2702 146.383 14.5251 153.901 14.2298ZM148.467 88.1111C148.917 85.5021 149.484 82.5183 150.168 79.1597C150.85 75.6778 151.467 71.9517 152.017 67.9813C152.691 64.0062 153.241 59.9742 153.666 55.8854C154.213 51.6684 154.576 47.5204 154.755 43.4412C153.765 43.2333 152.469 43.1609 150.867 43.2238C148.772 43.3061 146.99 43.6846 145.521 44.3593C144.174 44.9058 142.898 46.0665 141.695 47.8414C140.614 49.6114 139.607 52.1189 138.675 55.3638C137.863 58.4806 136.946 62.6505 135.922 67.8733C135.349 70.4872 134.721 73.5351 134.039 77.017C133.478 80.3707 132.861 84.0352 132.187 88.0104C131.634 91.8574 131.084 95.8894 130.538 100.106C129.989 104.2 129.625 108.286 129.446 112.366C130.436 112.573 131.794 112.643 133.519 112.576C135.491 112.498 137.212 112.184 138.683 111.632C140.151 110.958 141.426 109.735 142.507 107.965C143.71 106.191 144.718 103.745 145.529 100.628C146.464 97.5062 147.443 93.334 148.467 88.1111Z" stroke="white" stroke-width="20" mask="url(#path-1-outside-1_560_551)"/>
<path d="M247.232 10.5628C258.57 10.1173 266.863 11.9509 272.11 16.0636C277.356 20.053 280.051 26.4255 280.196 35.1809C280.274 39.8669 280.108 44.7476 279.699 49.823C279.413 54.8935 278.942 59.9096 278.284 64.8713C277.749 69.8281 277.027 74.6073 276.117 79.2087C275.33 83.8053 274.536 87.9703 273.734 91.7037C271.431 101.543 268.91 109.416 266.172 115.323C263.557 121.225 260.366 125.855 256.598 129.211C252.829 132.444 248.303 134.658 243.02 135.853C237.737 137.047 231.337 137.792 223.82 138.088C212.482 138.533 204.19 136.761 198.944 132.772C193.697 128.659 191.001 122.225 190.855 113.47C190.778 108.784 190.882 103.905 191.168 98.8348C191.577 93.7594 192.048 88.7433 192.583 83.7865C193.24 78.8247 193.963 74.0456 194.75 69.449C195.537 64.8524 196.393 60.685 197.317 56.9468C199.62 47.1079 202.08 39.2373 204.695 33.3349C207.433 27.4277 210.687 22.8575 214.456 19.6245C218.223 16.2682 222.748 13.9927 228.031 12.7979C233.314 11.6032 239.714 10.8581 247.232 10.5628ZM241.798 84.4441C242.248 81.8351 242.815 78.8513 243.499 75.4927C244.181 72.0108 244.798 68.2847 245.349 64.3143C246.023 60.3392 246.572 56.3072 246.998 52.2184C247.544 48.0014 247.907 43.8534 248.086 39.7742C247.096 39.5663 245.8 39.4939 244.198 39.5568C242.103 39.6391 240.321 40.0176 238.853 40.6923C237.505 41.2388 236.23 42.3995 235.026 44.1744C233.945 45.9444 232.939 48.4519 232.006 51.6968C231.194 54.8136 230.277 58.9835 229.254 64.2063C228.68 66.8202 228.053 69.8681 227.371 73.35C226.81 76.7037 226.192 80.3682 225.518 84.3434C224.965 88.1904 224.416 92.2224 223.869 96.4394C223.32 100.533 222.956 104.619 222.777 108.699C223.767 108.906 225.125 108.976 226.85 108.909C228.822 108.831 230.543 108.517 232.014 107.965C233.483 107.291 234.757 106.068 235.838 104.298C237.042 102.524 238.049 100.078 238.861 96.9609C239.796 93.8392 240.775 89.667 241.798 84.4441Z" stroke="white" stroke-width="20" mask="url(#path-1-outside-1_560_551)"/>
<path d="M323.111 32.9145L350.39 31.8427L337.986 106.918L358.071 106.129L352.031 130.829L306.616 132.613L323.111 32.9145Z" stroke="white" stroke-width="20" mask="url(#path-1-outside-1_560_551)"/>
<path d="M428.821 28.7611L422.926 53.1552L400.744 54.0267L398.569 67.6191L420.602 66.7534L416.781 89.5652L394.748 90.4309L392.436 104.779L417.767 103.784L411.727 128.484L361.066 130.474L377.561 30.7752L428.821 28.7611Z" stroke="white" stroke-width="20" mask="url(#path-1-outside-1_560_551)"/>
<path d="M466.023 27.2995L449.528 126.998L422.249 128.07L438.744 28.3713L466.023 27.2995Z" stroke="white" stroke-width="20" mask="url(#path-1-outside-1_560_551)"/>
</svg>
