<svg width="401" height="162" viewBox="0 0 401 162" fill="none" xmlns="http://www.w3.org/2000/svg">
<path d="M16.6688 155.047C19.1608 155.364 21.7724 155.606 24.5018 155.773C27.3746 156.067 30.1909 156.232 32.95 156.265C35.8318 156.424 38.4901 156.46 40.9141 156.365C47.8191 156.093 54.2943 155.288 60.3256 153.927C66.5498 152.659 72.1593 150.453 77.0806 147.248C82.2011 143.995 86.4932 139.66 89.9665 134.329C93.6452 128.746 96.2591 121.833 97.9534 113.768C98.3564 112.016 98.741 109.963 99.1112 107.63C99.4807 105.302 99.7837 102.975 100.02 100.649C100.391 98.2765 100.63 95.9046 100.735 93.534C100.967 91.1962 101.079 89.1 101.049 87.2798C100.909 78.8538 98.9033 71.6049 94.4 66.1768C89.4682 60.2322 81.7833 58.1066 72.8596 58.4572C70.2531 58.5596 67.8435 58.7865 65.6487 59.1537L66.6269 53.7021L102.581 52.2894L106.357 52.1411L107.244 48.4677L115.104 15.9424L116.658 9.51208L110.048 9.7718L33.1071 12.7948L29.036 12.9548L28.3705 16.9744L17.1009 85.0519L16.8433 86.6078L17.5251 88.0299L23.7393 100.993L25.2851 104.217L28.8361 103.796L53.8189 100.837C53.6137 105.902 52.3311 108.44 51.0144 109.635C48.9823 111.322 45.7653 112.549 40.7638 112.745C36.3431 112.919 31.9891 112.774 27.6997 112.313C23.3632 111.827 20.2959 111.322 18.3586 110.83L13.1128 109.499L12.2003 114.833L6.54888 147.872L5.79783 152.263L10.073 153.514C11.8708 154.04 13.9689 154.531 16.3405 154.995L16.5038 155.027L16.6688 155.047ZM200.938 98.9799L200.948 98.9348L200.958 98.8896C201.838 94.7896 202.706 90.2381 203.562 85.2393C204.567 80.1508 205.363 74.8801 205.952 69.4288C206.673 63.9778 207.191 58.4701 207.506 52.9059C207.957 47.2928 208.141 41.874 208.054 36.6517C207.881 26.21 204.615 17.6363 197.369 12.1096C190.301 6.58685 179.885 4.62665 167.222 5.1242C158.897 5.45125 151.656 6.28062 145.558 7.65989C139.099 9.12055 133.438 11.9368 128.693 16.1525C123.95 20.232 120.059 25.8108 116.895 32.636L116.878 32.6746L116.86 32.7134C113.86 39.486 111.119 48.3181 108.595 59.0952C107.564 63.2679 106.617 67.8846 105.752 72.9373C104.89 77.973 104.1 83.2021 103.381 88.6241L103.373 88.6845L103.367 88.7451C102.784 94.1495 102.27 99.6171 101.824 105.148L101.819 105.208L101.816 105.268C101.5 110.861 101.385 116.257 101.471 121.454C101.644 131.918 104.922 140.524 112.131 146.174L112.16 146.196L112.188 146.218C119.247 151.586 129.646 153.479 142.304 152.981C150.628 152.654 157.869 151.825 163.968 150.446C170.4 148.991 176.051 146.257 180.799 142.184L180.835 142.153L180.87 142.122C185.592 137.914 189.412 132.278 192.448 125.439C195.6 118.629 198.412 109.768 200.938 98.9799ZM160.452 67.3943L160.44 67.4686L160.429 67.5431C159.846 71.7483 159.195 75.6785 158.479 79.3359C157.739 82.9709 157.12 86.2223 156.626 89.0856C155.538 94.6321 154.519 98.9466 153.578 102.089L153.552 102.176L153.529 102.264C152.731 105.33 151.825 107.377 150.962 108.65L150.895 108.749L150.832 108.851C150.11 110.033 149.469 110.564 149.013 110.81C148.285 111.062 147.387 111.26 146.289 111.369C146.494 108.791 146.77 106.21 147.116 103.624L147.118 103.613L147.119 103.603C147.704 99.0874 148.293 94.7722 148.884 90.6568C149.604 86.4074 150.265 82.4857 150.866 78.8921C151.593 75.1819 152.26 71.9475 152.866 69.1845L152.878 69.1297L152.889 69.0747C153.979 63.5085 154.943 59.133 155.78 55.9107C156.703 52.7126 157.614 50.5309 158.429 49.1633C159.387 47.7787 160.043 47.4055 160.238 47.3262L160.343 47.2836L160.446 47.2363C161.07 46.9497 161.913 46.7023 163.035 46.5641C162.83 49.1833 162.553 51.8321 162.206 54.5106L162.198 54.5732L162.192 54.6359C161.743 58.9518 161.163 63.2045 160.452 67.3943ZM245.919 37.4504L241.847 37.6104L241.182 41.6304L224.687 141.329L223.686 147.383L229.817 147.142L275.232 145.357L278.136 145.243L278.997 145.209L284.267 145.002L334.928 143.012L338.693 142.864L339.588 139.203L340.617 134.998L340.321 136.786L339.319 142.839L345.45 142.598L372.729 141.527L376.801 141.367L377.466 137.347L393.96 37.6476L394.962 31.5945L388.831 31.8353L361.552 32.9071L358.239 33.0373L357.48 33.0671L351.629 33.297L300.369 35.311L296.297 35.471L295.632 39.4911L283.876 110.547L280.879 110.665L266.923 111.213L278.327 42.1898L279.327 36.1378L273.198 36.3786L245.919 37.4504ZM355.848 42.9333L345.06 108.143L340.575 108.32L321.349 109.075L322.038 104.798L339.982 104.093L344.045 103.934L344.717 99.9233L348.538 77.1115L349.554 71.0479L343.41 71.2893L327.475 71.9154L328.038 68.394L346.127 67.6833L349.903 67.535L350.791 63.8616L355.848 42.9333Z" fill="#FF0000" stroke="white" stroke-width="10"/>
</svg>
